HIERARCHY
ROOT Hips
{
	OFFSET 0.00000 0.00000 0.00000
	CHANNELS 6 Xposition Yposition Zposition Zrotation Yrotation Xrotation 
	JOINT LHipJoint
	{
		OFFSET 0 0 0
		CHANNELS 3 Zrotation Yrotation Xrotation
		JOINT LeftHip
		{
			OFFSET 1.77779 -1.88989 0.48267
			CHANNELS 3 Zrotation Yrotation Xrotation
			JOINT LeftKnee
			{
				OFFSET 2.53442 -6.96327 0.00000
				CHANNELS 3 Zrotation Yrotation Xrotation
				JOINT LeftAnkle
				{
					OFFSET 2.71068 -7.44755 0.00000
					CHANNELS 3 Zrotation Yrotation Xrotation
					JOINT LeftToe
					{
						OFFSET 0.17992 -0.49431 2.22524
						CHANNELS 3 Zrotation Yrotation Xrotation
						End Site
						{
							OFFSET 0.00000 -0.00000 1.14687
						}
					}
				}
			}
		}
	}
	JOINT RHipJoint
	{
		OFFSET 0 0 0
		CHANNELS 3 Zrotation Yrotation Xrotation
		JOINT RightHip
		{
			OFFSET -1.58469 -1.88989 0.48267
			CHANNELS 3 Zrotation Yrotation Xrotation
			JOINT RightKnee
			{
				OFFSET -2.60386 -7.15404 0.00000
				CHANNELS 3 Zrotation Yrotation Xrotation
				JOINT RightAnkle
				{
					OFFSET -2.73334 -7.50979 0.00000
					CHANNELS 3 Zrotation Yrotation Xrotation
					JOINT RightToe
					{
						OFFSET -0.25618 -0.70384 2.21822
						CHANNELS 3 Zrotation Yrotation Xrotation
						End Site
						{
							OFFSET -0.00000 -0.00000 1.16381
						}
					}
				}
			}
		}
	}
	JOINT lowerback
	{
		OFFSET 0 0 0
		CHANNELS 3 Zrotation Yrotation Xrotation
		JOINT Chest
		{
			OFFSET 0.03410 2.01612 -0.22230
			CHANNELS 3 Zrotation Yrotation Xrotation
			JOINT Chest2
			{
				OFFSET 0.03465 2.03012 0.00937
				CHANNELS 3 Zrotation Yrotation Xrotation
				JOINT lowerneck
				{
					OFFSET 0 0 0
					CHANNELS 3 Zrotation Yrotation Xrotation
					JOINT Neck
					{
						OFFSET -0.00219 1.70459 0.20857
						CHANNELS 3 Zrotation Yrotation Xrotation
						JOINT Head
						{
							OFFSET 0.02518 1.72339 -0.22179
							CHANNELS 3 Zrotation Yrotation Xrotation
							End Site
							{
								OFFSET 0.00282 1.74122 -0.09823
							}
						}
					}
				}
				JOINT LeftCollar
				{
					OFFSET 0 0 0
					CHANNELS 3 Zrotation Yrotation Xrotation
					JOINT LeftShoulder
					{
						OFFSET 3.36358 1.00547 -0.37661
CHANNELS 3 Zrotation Xrotation Yrotation
						JOINT LeftElbow
						{
OFFSET 0 -5.065070 0.000000
CHANNELS 3 Zrotation Xrotation Yrotation
							JOINT LeftWrist
							{
OFFSET 0 -3.601960 0.000000
CHANNELS 3 Zrotation Xrotation Yrotation
								JOINT lhand
								{
									OFFSET 0 0 0
CHANNELS 3 Zrotation Xrotation Yrotation
									JOINT LFingers
									{
OFFSET 0 -0.450350 0.000000
CHANNELS 3 Zrotation Xrotation Yrotation
										End Site
										{
OFFSET 0 -0.363080 0.000000
										}
									}
								}
								JOINT LThumb
								{
OFFSET 0 0.000000 0.000000
CHANNELS 3 Zrotation Xrotation Yrotation
									End Site
									{
OFFSET 0 -0.368620 0.368620
									}
								}
							}
						}
					}
				}
				JOINT RightCollar
				{
					OFFSET 0 0 0
					CHANNELS 3 Zrotation Yrotation Xrotation
					JOINT RightShoulder
					{
						OFFSET -3.50159 0.80383 -0.71526
CHANNELS 3 Zrotation Xrotation Yrotation
						JOINT RightElbow
						{
OFFSET 0 -5.363940 0.000000
CHANNELS 3 Zrotation Xrotation Yrotation
							JOINT RightWrist
							{
OFFSET 0 -3.580350 0.000000
CHANNELS 3 Zrotation Xrotation Yrotation
								JOINT rhand
								{
									OFFSET 0 0 0
CHANNELS 3 Zrotation Xrotation Yrotation
									JOINT RFingers
									{
OFFSET 0 -0.663750 0.000000
CHANNELS 3 Zrotation Xrotation Yrotation
										End Site
										{
OFFSET 0 -0.535130 0.000000
										}
									}
								}
								JOINT RThumb
								{
OFFSET 0 0.000000 0.000000
CHANNELS 3 Zrotation Xrotation Yrotation
									End Site
									{
OFFSET 0 -0.543300 0.543300
									}
								}
							}
						}
					}
				}
			}
		}
	}
}
MOTION
Frames: 5
Frame Time: 0.008333333333333333
0.778300 17.816500 -29.020900 -4.668300 -4.912000 -1.494200 0.000000 0.000000 0.000000 -14.800700 -9.161800 -20.902700 1.064700 6.560200 18.418700 0.090200 -3.958000 -5.627000 0.745500 -5.515400 -15.384700 0.000000 0.000000 0.000000 31.137100 3.015200 10.522900 -3.029500 -10.742700 31.417000 -0.711500 2.342900 -15.311200 -0.386100 3.990100 -11.048800 3.633100 2.331800 9.564000 1.372900 3.558900 0.558300 -1.082800 1.695100 -4.645100 -1.369900 -3.723600 -15.421300 0.261800 -5.009500 26.561900 -0.377200 -2.376600 11.198200 0.000000 -0.000000 0.000000 1.202100 5.459000 -15.781400 11.309200 -18.760600 1.874200 27.462800 5.930500 -20.041900 0.000000 0.000000 0.000000 -7.125000 0.000000 0.000000 -0.996100 52.326000 0.179600 0.000000 -0.000000 0.000000 -2.588900 -8.334400 21.765100 -17.948300 -28.090900 -4.524800 -23.957300 -8.839300 -20.837700 0.000000 0.000000 0.000000 7.125000 0.000000 -0.000000 2.934100 7.392700 2.535600
0.787316 17.832101 -28.890654 -4.268612 -4.890005 -1.623486 0.000000 0.000000 0.000000 -15.308319 -9.111927 -20.580123 1.094560 6.648181 18.677273 0.061811 -4.738834 -5.194383 0.603553 -4.953560 -13.780128 0.000000 0.000000 0.000000 30.551283 2.882269 10.138302 -3.283789 -11.135099 32.743433 -0.623966 2.529605 -14.255808 -0.427597 4.193493 -11.622149 3.454772 2.467097 9.593412 1.026346 3.691511 0.931965 -1.349557 1.772979 -4.252893 -0.930569 -3.798665 -17.058865 0.333860 -5.269416 27.097269 -0.508469 -2.418225 11.723530 0.000000 0.000000 0.000000 1.659015 4.533214 -15.929677 11.059131 -18.378239 1.794978 27.434027 5.699933 -19.618746 0.000000 0.000000 0.000000 -7.125000 0.000000 0.000000 -0.934910 51.858535 0.158244 0.000000 0.000000 0.000000 -2.116256 -9.041639 20.912014 -17.781097 -27.875614 -4.446538 -23.734533 -8.840515 -21.197234 0.000000 0.000000 0.000000 7.125000 0.000000 0.000000 3.111597 7.048320 2.711051
0.795969 17.846086 -28.761998 -3.953120 -4.858363 -1.734205 0.000000 0.000000 0.000000 -15.732633 -9.022548 -20.208227 1.112125 6.699863 18.829178 0.027288 -5.213548 -4.412180 0.394444 -3.787007 -10.504302 0.000000 0.000000 0.000000 30.050833 2.774653 9.651970 -3.569582 -11.557385 34.192510 -0.534788 2.716783 -13.128626 -0.441549 4.262867 -11.817587 3.251770 2.498737 9.626839 0.845230 3.701647 1.009713 -1.424948 1.782552 -4.190169 -0.805806 -3.796978 -17.479644 0.405725 -5.326534 27.337697 -0.524426 -2.415911 11.898774 0.000000 0.000000 0.000000 1.830970 4.351735 -15.783403 10.880964 -18.105502 1.738786 27.466952 5.588356 -19.354869 0.000000 0.000000 0.000000 -7.125000 0.000000 0.000000 -0.845142 51.576276 0.136916 0.000000 0.000000 0.000000 -1.838102 -9.096798 20.311268 -17.598365 -27.639391 -4.361500 -23.305651 -8.823831 -21.751230 0.000000 0.000000 0.000000 7.125000 0.000000 0.000000 3.437749 6.535099 3.033429
0.804153 17.857978 -28.635397 -3.746531 -4.814244 -1.820908 0.000000 0.000000 0.000000 -16.049199 -8.882072 -19.772541 1.113787 6.704595 18.843117 -0.015168 -5.292322 -3.177821 0.098467 -1.838311 -5.066853 0.000000 0.000000 0.000000 29.660800 2.699779 9.034054 -3.896123 -12.018328 35.800215 -0.443481 2.904574 -11.908588 -0.419873 4.158901 -11.524231 3.016854 2.396305 9.665459 0.878095 3.553370 0.704720 -1.252821 1.703778 -4.553603 -1.087909 -3.696017 -16.326615 0.477338 -5.121351 27.196646 -0.391240 -2.356767 11.621211 0.000000 0.000000 0.000000 1.634354 5.132953 -15.256155 10.795796 -17.974553 1.712378 27.579678 5.630685 -19.297003 0.000000 0.000000 0.000000 -7.125000 0.000000 0.000000 -0.718413 51.533564 0.115624 0.000000 0.000000 0.000000 -1.811503 -8.308547 20.036902 -17.395548 -27.376086 -4.267701 -22.610177 -8.783996 -22.556745 0.000000 0.000000 0.000000 7.125000 0.000000 0.000000 3.956174 5.803499 3.545843
0.814233 17.861284 -28.509075 -3.489757 -4.707675 -1.966771 0.000000 0.000000 0.000000 -16.481634 -8.642790 -19.438950 1.127382 6.743897 18.958873 -0.041120 -5.509881 -2.417752 0.061325 -1.597810 -4.395455 0.000000 0.000000 0.000000 29.176588 2.522698 8.440004 -4.227069 -12.449217 37.351323 -0.344815 2.989434 -10.406798 -0.361006 3.850409 -10.657387 2.652688 2.204937 9.703019 1.002685 3.277014 0.366494 -0.894458 1.567460 -4.966162 -1.530934 -3.539798 -14.812767 0.495700 -4.794667 26.932198 -0.228110 -2.267512 11.228169 0.000000 0.000000 0.000000 1.219942 6.100910 -14.516853 10.753396 -17.909233 1.699298 28.136864 5.735687 -18.842798 0.000000 0.000000 0.000000 -7.125000 0.000000 0.000000 -0.066987 51.134381 0.014986 0.000000 0.000000 0.000000 -1.967405 -7.301551 20.411187 -17.223510 -27.151145 -4.189012 -23.036363 -8.346540 -22.282363 0.000000 0.000000 0.000000 7.125000 0.000000 0.000000 3.661122 6.019254 3.265635
